<svg xmlns="http://www.w3.org/2000/svg" viewBox="0 0 256 256" role="img" aria-labelledby="title desc">
  <title id="title">Ben English teacher avatar</title>
  <desc id="desc">Calm English teacher holding a pencil.</desc>
  <rect width="256" height="256" rx="56" fill="#fff1df"/>
  <circle cx="128" cy="118" r="78" fill="#f2a65a"/>
  <path d="M61 220c9-43 39-69 67-69s58 26 67 69z" fill="#205451"/>
  <path d="M94 154h68l9 66H85z" fill="#b8754f"/>
  <circle cx="128" cy="108" r="52" fill="#c6865d"/>
  <path d="M79 93c10-38 34-56 65-51 25 4 41 23 42 55-27-2-56-13-80-32-6 12-15 22-27 28z" fill="#24201d"/>
  <path d="M92 107c7-7 17-7 24 0m24 0c7-7 17-7 24 0" fill="none" stroke="#2b2521" stroke-width="6" stroke-linecap="round"/>
  <circle cx="105" cy="118" r="5" fill="#1d1d1d"/>
  <circle cx="151" cy="118" r="5" fill="#1d1d1d"/>
  <path d="M112 139c10 7 22 7 32 0" fill="none" stroke="#733c34" stroke-width="6" stroke-linecap="round"/>
  <path d="M100 162l28 35 28-35" fill="#ffffff"/>
  <path d="M128 172l-14 48h28z" fill="#ef6f61"/>
  <rect x="179" y="151" width="13" height="64" rx="6" transform="rotate(34 185.5 183)" fill="#ffd166"/>
  <path d="M169 205l-7 13 15-3z" fill="#2b2521"/>
</svg>
